<?xml version="1.0" encoding="iso-8859-1"?>
<!-- Generator: Adobe Illustrator 21.0.0, SVG Export Plug-In . SVG Version: 6.00 Build 0)  -->
<svg xmlns="http://www.w3.org/2000/svg" xmlns:xlink="http://www.w3.org/1999/xlink" version="1.1" id="Capa_1" x="0px" y="0px" viewBox="0 0 511.68 511.68" style="enable-background:new 0 0 511.68 511.68;" xml:space="preserve" width="512" height="512">
<g>
	<g>
		<path style="fill:#00ECCF;" d="M242.13,478.616c-10.93,0-23.261-3.886-33.547-8.179c-22.458-9.371-45.232-24.938-64.127-43.833    c-39.128-39.128-69.891-92.593-44.971-117.514c0,0,0,0,0,0c24.923-24.92,78.387,5.842,117.515,44.97    c18.895,18.895,34.462,41.669,43.834,64.127c7.323,17.55,13.465,41.059,1.136,53.388    C256.868,476.676,249.847,478.616,242.13,478.616z"/>
	</g>
	<g>
		<path style="fill:#00ECCF;" d="M254.012,511.68c-8.284,0-15-6.716-15-15V298.2c0-8.284,6.716-15,15-15s15,6.716,15,15v198.48    C269.012,504.964,262.297,511.68,254.012,511.68z"/>
	</g>
	<path style="fill:#00CAB1;" d="M254.514,283.225v228.43c8.05-0.267,14.498-6.86,14.498-14.975V298.2   C269.012,290.085,262.564,283.492,254.514,283.225z"/>
	<g>
		<path style="fill:#C30048;" d="M253.515,308.535c-46.903,0-84.142-15.075-110.681-44.807    c-21.826-24.451-35.133-58.009-38.483-97.047c-2.829-32.957,1.887-68.227,12.938-96.768c12.385-31.987,30.9-51.625,52.134-55.297    c32.518-5.62,64.22,20.195,85.125,42.9c20.905-22.705,52.602-48.524,85.124-42.9c21.024,3.636,39.287,23.081,51.424,54.755    c10.799,28.181,15.382,63.118,12.572,95.851c-3.377,39.352-16.764,73.218-38.714,97.937    C338.216,293.268,300.722,308.535,253.515,308.535z"/>
	</g>
	<g>
		<path style="fill:#FF3C7D;" d="M254.355,308.522c-50.673,0-91.899-47.486-91.899-105.854c0-28.603,9.813-78.022,23.332-117.509    C205.135,28.651,228.204,0,254.355,0c26.151,0,49.221,28.651,68.567,85.159c13.52,39.486,23.332,88.906,23.332,117.509    C346.254,261.036,305.029,308.522,254.355,308.522z"/>
	</g>
	<path style="fill:#A1003C;" d="M391.094,69.372c-12.137-31.674-30.399-51.119-51.424-54.755   c-32.521-5.624-64.219,20.196-85.124,42.9c-0.011-0.012-0.022-0.023-0.033-0.035v251.043   c46.735-0.215,83.891-15.471,110.438-45.366c21.95-24.719,35.337-58.584,38.714-97.937   C406.476,132.489,401.893,97.553,391.094,69.372z"/>
	<path style="fill:#C30048;" d="M322.922,85.159C303.615,28.767,280.6,0.122,254.514,0.005V308.52   c50.601-0.1,91.74-47.545,91.74-105.852C346.254,174.065,336.442,124.645,322.922,85.159z"/>
	<path style="fill:#00CAB1;" d="M412.194,340.922c-24.922-24.921-78.386,5.842-117.515,44.97   c-19.69,19.69-32.651,41.792-40.18,57.233v67.886c1.681,0.3,3.624,0.488,5.911,0.488c8.002,0,20.03-2.218,38.294-9.307   c15.116-5.868,44.12-19.354,68.521-43.755C406.353,419.308,437.116,365.844,412.194,340.922z"/>
</g>















</svg>
