<?xml version="1.0" encoding="iso-8859-1"?>
<!-- Generator: Adobe Illustrator 21.0.0, SVG Export Plug-In . SVG Version: 6.00 Build 0)  -->
<svg xmlns="http://www.w3.org/2000/svg" xmlns:xlink="http://www.w3.org/1999/xlink" version="1.1" id="Capa_1" x="0px" y="0px" viewBox="0 0 511.94 511.94" style="enable-background:new 0 0 511.94 511.94;" xml:space="preserve" width="512" height="512">
<g>
	<path style="fill-rule:evenodd;clip-rule:evenodd;fill:#B34F03;" d="M285.97,511.94h-60c-8.284,0-15-6.716-15-15v-95.25   c0-8.284,6.716-15,15-15h60c8.284,0,15,6.716,15,15v95.25C300.97,505.224,294.254,511.94,285.97,511.94z"/>
	<path style="fill-rule:evenodd;clip-rule:evenodd;fill:#803602;" d="M285.97,386.69h-30.066v125.25h30.066c8.284,0,15-6.716,15-15   v-95.25C300.97,393.406,294.254,386.69,285.97,386.69z"/>
	<g>
		<g>
			<path style="fill:#FFF4F4;" d="M390.97,428.656h-270c-8.284,0-15-6.716-15-15V151.548c0-4.836,2.332-9.375,6.263-12.192     L248.9,41.414c5.277-3.781,12.385-3.74,17.617,0.104l133.333,97.941c3.848,2.826,6.12,7.315,6.12,12.089v262.108     C405.97,421.941,399.254,428.656,390.97,428.656z"/>
		</g>
	</g>
	<path style="fill:#EEE1DC;" d="M399.85,139.459L266.517,41.518c-3.131-2.3-6.933-3.227-10.613-2.8v389.938H390.97   c8.284,0,15-6.716,15-15V151.548C405.97,146.774,403.698,142.285,399.85,139.459z"/>
	<g>
		<path style="fill:#FFE470;" d="M255.97,297.155c-24.813,0-45-20.187-45-45s20.187-45,45-45s45,20.187,45,45    S280.784,297.155,255.97,297.155z M255.97,237.155c-8.271,0-15,6.729-15,15s6.729,15,15,15s15-6.729,15-15    S264.242,237.155,255.97,237.155z"/>
	</g>
	<g>
		<path style="fill:#FFE470;" d="M285.784,357.156h-59.627c-8.284,0-15-6.716-15-15s6.716-15,15-15h59.627c8.284,0,15,6.716,15,15    S294.068,357.156,285.784,357.156z"/>
	</g>
	<path style="fill:#B34F03;" d="M469.58,201.213L277.247,8.88c-1.117-1.117-2.301-2.126-3.538-3.03   C268.433,1.95,262.168,0,255.904,0c-7.677,0-15.353,2.928-21.211,8.786L42.36,201.119c-11.716,11.716-11.716,30.711,0,42.426v0   c5.858,5.858,13.536,8.786,21.213,8.786s15.355-2.929,21.213-8.786L255.923,72.409l171.23,171.23   c5.858,5.858,13.536,8.787,21.213,8.787s15.355-2.929,21.213-8.787v0C481.296,231.923,481.296,212.928,469.58,201.213z"/>
	<path style="fill:#803602;" d="M469.58,201.213L277.247,8.88c-1.117-1.117-2.301-2.126-3.538-3.03   C268.433,1.95,262.168,0,255.904,0v72.428l0.019-0.019l171.23,171.23c5.858,5.858,13.536,8.787,21.213,8.787   s15.355-2.929,21.213-8.787v0C481.296,231.923,481.296,212.928,469.58,201.213z"/>
	<path style="fill:#FDBF00;" d="M255.97,207.155c-0.022,0-0.044,0.002-0.066,0.002v30.002c0.022,0,0.044-0.003,0.066-0.003   c8.271,0,15,6.729,15,15s-6.729,15-15,15c-0.022,0-0.044-0.003-0.066-0.003v30.002c0.022,0,0.044,0.002,0.066,0.002   c24.813,0,45-20.187,45-45S280.784,207.155,255.97,207.155z"/>
	<path style="fill:#FDBF00;" d="M285.784,327.156h-29.88v30h29.88c8.284,0,15-6.716,15-15S294.068,327.156,285.784,327.156z"/>
</g>















</svg>
