<?xml version="1.0" encoding="iso-8859-1"?>
<!-- Generator: Adobe Illustrator 21.0.0, SVG Export Plug-In . SVG Version: 6.00 Build 0)  -->
<svg xmlns="http://www.w3.org/2000/svg" xmlns:xlink="http://www.w3.org/1999/xlink" version="1.1" id="Capa_1" x="0px" y="0px" viewBox="0 0 512 512" style="enable-background:new 0 0 512 512;" xml:space="preserve" width="512" height="512">
<g>
	<g>
		<path style="fill:#B34F03;" d="M227.5,512h-60c-8.284,0-15-6.716-15-15V378c0-8.284,6.716-15,15-15h60c8.284,0,15,6.716,15,15v119    C242.5,505.284,235.784,512,227.5,512z"/>
	</g>
	<path style="fill:#803602;" d="M227.5,363h-30v149h30c8.284,0,15-6.716,15-15V378C242.5,369.716,235.784,363,227.5,363z"/>
	<g>
		<path style="fill:#A24603;" d="M354.529,512h-60c-8.284,0-15-6.716-15-15V341.851c0-8.284,6.716-15,15-15h60    c8.284,0,15,6.716,15,15V497C369.529,505.284,362.813,512,354.529,512z"/>
	</g>
	<path style="fill:#6F2E01;" d="M354.529,326.851h-27.562V512h27.562c8.284,0,15-6.716,15-15V341.851   C369.529,333.567,362.813,326.851,354.529,326.851z"/>
	<g>
		<path style="fill:#28AC87;" d="M479.5,420H174.434c-5.703,0-10.912-3.234-13.442-8.345c-2.53-5.111-1.943-11.214,1.514-15.75    l66.217-86.848h-59.165c-5.708,0-10.921-3.239-13.448-8.357c-2.528-5.117-1.933-11.226,1.536-15.759l69.736-91.135    c-4.277-1.111-7.921-4.08-9.835-8.206c-2.458-5.298-1.618-11.541,2.153-16l95.814-113.289c2.851-3.37,7.04-5.313,11.453-5.313    s8.603,1.944,11.453,5.313l95.814,113.289c3.771,4.459,4.611,10.702,2.154,16c-2.458,5.297-7.768,8.687-13.607,8.687H396.92    l69.369,90.653c3.469,4.533,4.064,10.642,1.536,15.759c-2.527,5.118-7.74,8.357-13.448,8.357h-29.164l66.216,86.848    c3.457,4.535,4.044,10.639,1.514,15.75C490.412,416.766,485.203,420,479.5,420z"/>
	</g>
	<path style="fill:#179975;" d="M491.429,395.905l-66.216-86.848h29.164c5.708,0,10.921-3.239,13.448-8.357   c2.528-5.117,1.933-11.226-1.536-15.759l-69.369-90.653h25.861c5.84,0,11.149-3.39,13.607-8.687c2.457-5.298,1.617-11.541-2.154-16   L338.42,56.313C335.57,52.944,331.38,51,326.967,51v369H479.5c5.703,0,10.912-3.234,13.442-8.345   C495.473,406.544,494.886,400.44,491.429,395.905z"/>
	<g>
		<path style="fill:#00ECCF;" d="M362.5,420h-330c-5.623,0-10.774-3.146-13.344-8.148c-2.568-5.002-2.124-11.021,1.152-15.592    l74.48-103.893H59.677c-5.628,0-10.782-3.15-13.35-8.159c-2.566-5.009-2.113-11.033,1.174-15.602l77.904-108.274H93.855    c-5.758,0-11.008-3.296-13.51-8.482c-2.502-5.187-1.814-11.347,1.77-15.854L185.76,5.664C188.606,2.085,192.928,0,197.5,0    s8.895,2.085,11.74,5.664l103.646,130.332c3.584,4.507,4.271,10.667,1.77,15.854c-2.502,5.186-7.752,8.482-13.51,8.482h-31.551    l77.904,108.274c3.287,4.569,3.74,10.593,1.174,15.602c-2.567,5.009-7.722,8.159-13.35,8.159h-35.112l74.48,103.893    c3.276,4.57,3.721,10.589,1.152,15.592C373.275,416.854,368.123,420,362.5,420z"/>
	</g>
	<path style="fill:#00CAB1;" d="M374.692,396.26l-74.48-103.893h35.112c5.628,0,10.782-3.15,13.35-8.159   c2.566-5.009,2.113-11.033-1.174-15.602l-77.904-108.274h31.551c5.758,0,11.008-3.296,13.51-8.482   c2.502-5.187,1.814-11.347-1.77-15.854L209.24,5.664C206.395,2.085,202.073,0,197.5,0v420h165c5.623,0,10.774-3.146,13.344-8.148   C378.412,406.85,377.968,400.831,374.692,396.26z"/>
</g>















</svg>
