<?xml version="1.0" encoding="iso-8859-1"?>
<!-- Generator: Adobe Illustrator 21.0.0, SVG Export Plug-In . SVG Version: 6.00 Build 0)  -->
<svg xmlns="http://www.w3.org/2000/svg" xmlns:xlink="http://www.w3.org/1999/xlink" version="1.1" id="Capa_1" x="0px" y="0px" viewBox="0 0 512.016 512.016" style="enable-background:new 0 0 512.016 512.016;" xml:space="preserve" width="512" height="512">
<g>
	<g>
		<g>
			<path style="fill:#FFE470;" d="M193.879,259.995c-4.431,0-8.889-0.582-13.282-1.76c-13.157-3.525-24.155-11.964-30.966-23.761     c-0.466-0.807-0.944-1.687-1.434-2.636c-0.488,0.95-0.967,1.83-1.434,2.638c-6.81,11.795-17.807,20.233-30.965,23.759     c-13.155,3.525-26.899,1.717-38.697-5.095c-11.797-6.811-20.235-17.809-23.761-30.966c-3.525-13.158-1.716-26.901,5.095-38.698     c0.465-0.807,0.987-1.66,1.565-2.559c-1.065,0.052-2.066,0.077-2.999,0.077c-28.12,0-50.997-22.877-50.997-50.997     S28.882,79,57.002,79c0.932,0,1.933,0.025,2.999,0.077c-0.578-0.899-1.102-1.754-1.567-2.562     c-6.809-11.794-8.618-25.537-5.093-38.694c3.525-13.158,11.964-24.155,23.761-30.966c11.797-6.812,25.54-8.622,38.697-5.095     c13.158,3.525,24.155,11.964,30.966,23.761c0.466,0.807,0.944,1.687,1.434,2.636c0.487-0.947,0.965-1.826,1.431-2.633     c6.813-11.8,17.811-20.238,30.968-23.764c13.157-3.523,26.9-1.716,38.697,5.095s20.235,17.809,23.761,30.966     s1.717,26.9-5.095,38.697c-0.466,0.807-0.988,1.661-1.565,2.559c1.066-0.052,2.067-0.077,2.999-0.077     c28.12,0,50.997,22.877,50.997,50.997s-22.877,50.998-50.997,50.998c-0.932,0-1.933-0.025-2.999-0.077     c0.578,0.899,1.101,1.754,1.567,2.562c6.81,11.794,8.618,25.537,5.093,38.695c-3.525,13.157-11.964,24.155-23.761,30.966     C211.437,257.678,202.715,259.995,193.879,259.995z"/>
		</g>
	</g>
	<path style="fill:#FDBF00;" d="M290.391,129.997c0-28.12-22.877-50.997-50.997-50.997c-0.932,0-1.933,0.025-2.999,0.077   c0.577-0.897,1.1-1.752,1.565-2.559c6.812-11.797,8.62-25.54,5.095-38.697s-11.964-24.155-23.761-30.966s-25.54-8.618-38.697-5.095   c-13.157,3.525-24.155,11.964-30.968,23.764c-0.417,0.723-0.845,1.512-1.28,2.348v204.253c0.436,0.837,0.865,1.627,1.282,2.349   c6.811,11.797,17.809,20.235,30.966,23.761c4.394,1.178,8.852,1.76,13.282,1.76c8.836,0,17.558-2.317,25.415-6.854   c11.797-6.811,20.235-17.809,23.761-30.966c3.525-13.158,1.717-26.901-5.093-38.695c-0.467-0.808-0.989-1.662-1.567-2.562   c1.066,0.052,2.067,0.077,2.999,0.077C267.514,180.995,290.391,158.117,290.391,129.997z"/>
	<g>
		<path style="fill:#FFF4F4;" d="M148.199,174.998c-24.813,0-45-20.187-45-45s20.187-45.001,45-45.001s45,20.188,45,45.001    S173.012,174.998,148.199,174.998z"/>
	</g>
	<g>
		<path style="fill:#FF3C7D;" d="M378.251,512.016c-27.739,0-50.308-22.568-50.308-50.308c0-0.755,0.018-1.557,0.052-2.401    c-0.716,0.453-1.402,0.868-2.057,1.246c-24.023,13.872-54.848,5.607-68.719-18.414c-6.719-11.638-8.504-25.195-5.025-38.175    c3.478-12.979,11.802-23.828,23.439-30.547c0.654-0.378,1.356-0.764,2.104-1.156c-0.75-0.394-1.453-0.78-2.107-1.158    c-24.02-13.868-32.28-44.696-18.412-68.719c13.87-24.025,44.701-32.282,68.722-18.414c0.654,0.377,1.339,0.793,2.055,1.245    c-0.034-0.842-0.052-1.641-0.052-2.396c0-27.745,22.568-50.313,50.308-50.313s50.308,22.568,50.308,50.308    c0,0.755-0.018,1.556-0.052,2.4c0.715-0.451,1.399-0.866,2.054-1.244c11.637-6.719,25.192-8.503,38.175-5.026    c12.979,3.479,23.828,11.803,30.546,23.439c13.87,24.023,5.609,54.852-18.413,68.722c-0.654,0.378-1.356,0.764-2.104,1.156    c0.748,0.393,1.45,0.778,2.104,1.156c24.022,13.87,32.283,44.698,18.413,68.722c-6.718,11.637-17.566,19.961-30.546,23.439    c-12.981,3.478-26.538,1.692-38.175-5.026c-0.654-0.377-1.339-0.793-2.054-1.244c0.034,0.845,0.052,1.646,0.052,2.4    C428.558,489.448,405.99,512.016,378.251,512.016z"/>
	</g>
	<path style="fill:#C30048;" d="M480.868,373.418c-0.654-0.378-1.356-0.764-2.104-1.156c0.748-0.393,1.45-0.778,2.104-1.156   c24.022-13.87,32.283-44.698,18.413-68.722c-6.718-11.637-17.566-19.961-30.546-23.439c-12.982-3.477-26.538-1.692-38.175,5.026   c-0.654,0.378-1.339,0.793-2.054,1.244c0.034-0.845,0.052-1.646,0.052-2.4c0-27.739-22.568-50.308-50.308-50.308v279.51   c27.739,0,50.308-22.568,50.308-50.308c0-0.755-0.018-1.556-0.052-2.4c0.715,0.451,1.399,0.867,2.054,1.244   c11.637,6.719,25.193,8.504,38.175,5.026c12.979-3.479,23.828-11.803,30.546-23.439   C513.151,418.116,504.89,387.288,480.868,373.418z"/>
	<g>
		<path style="fill:#FFF4F4;" d="M378.251,417.262c-24.813,0-45-20.188-45-45.001s20.187-45.001,45-45.001s45,20.188,45,45.001    S403.064,417.262,378.251,417.262z"/>
	</g>
	<path style="fill:#EEE1DC;" d="M148.349,85.001v89.993c24.744-0.082,44.849-20.233,44.849-44.996S173.094,85.083,148.349,85.001z"/>
	<path style="fill:#EEE1DC;" d="M378.251,327.261v90.002c24.813,0,45-20.188,45-45.001S403.064,327.261,378.251,327.261z"/>
</g>















</svg>
