<?xml version="1.0" encoding="iso-8859-1"?>
<!-- Generator: Adobe Illustrator 21.0.0, SVG Export Plug-In . SVG Version: 6.00 Build 0)  -->
<svg xmlns="http://www.w3.org/2000/svg" xmlns:xlink="http://www.w3.org/1999/xlink" version="1.1" id="Capa_1" x="0px" y="0px" viewBox="0 0 512.006 512.006" style="enable-background:new 0 0 512.006 512.006;" xml:space="preserve" width="512" height="512">
<g>
	<g>
		<path style="fill:#00CAB1;" d="M328.445,327.548c-26.231,0-52.464-9.985-72.434-29.955c-39.939-39.94-39.939-104.928,0-144.867    c20.761-20.761,66.491-40.133,102.365-51.339c20.806-6.499,40.09-10.923,55.767-12.794c21.602-2.58,35.317-0.129,43.157,7.712    c7.84,7.84,10.29,21.554,7.712,43.157c-1.871,15.677-6.296,34.96-12.795,55.766c-11.206,35.874-30.577,81.604-51.338,102.365    C380.91,317.563,354.677,327.548,328.445,327.548z"/>
	</g>
	<g>
		<path style="fill:#6F2E01;" d="M183.948,385.351c-3.839,0-7.678-1.464-10.606-4.394c-5.858-5.857-5.858-15.355,0-21.213    l184.768-184.766c5.858-5.858,15.356-5.858,21.213,0c5.858,5.857,5.858,15.355,0,21.213L194.554,380.957    C191.625,383.886,187.786,385.351,183.948,385.351z"/>
	</g>
	<g>
		<g>
			<path style="fill:#B34F03;" d="M181.008,512.006h-120c-8.284,0-15-6.716-15-15V15c0-8.284,6.716-15,15-15h120     c8.284,0,15,6.716,15,15v482.006C196.008,505.29,189.292,512.006,181.008,512.006z"/>
		</g>
	</g>
	<path style="fill:#803602;" d="M181.008,0h-61v512.006h61c8.284,0,15-6.716,15-15V15C196.008,6.716,189.292,0,181.008,0z"/>
</g>















</svg>
