<?xml version="1.0" encoding="iso-8859-1"?>
<!-- Generator: Adobe Illustrator 21.0.0, SVG Export Plug-In . SVG Version: 6.00 Build 0)  -->
<svg xmlns="http://www.w3.org/2000/svg" xmlns:xlink="http://www.w3.org/1999/xlink" version="1.1" id="Capa_1" x="0px" y="0px" viewBox="0 0 511.998 511.998" style="enable-background:new 0 0 511.998 511.998;" xml:space="preserve" width="512" height="512">
<g>
	<g>
		<path style="fill:#C30048;" d="M135.999,271.998c-3.804,0-7.606-1.438-10.524-4.312l-39.07-38.472    c-4.623-4.553-5.795-11.562-2.905-17.37l39.07-78.527c2.501-5.026,7.6-8.235,13.213-8.316c5.617-0.058,10.802,2.979,13.447,7.932    l41.108,76.97c3.146,5.892,2.019,13.153-2.766,17.813l-41.108,40.029C143.551,270.581,139.774,271.998,135.999,271.998z"/>
	</g>
	<g>
		<path style="fill:#A1003C;" d="M375.999,266.498c-3.804,0-7.605-1.438-10.524-4.313l-39.069-38.472    c-4.624-4.553-5.796-11.563-2.904-17.371l43.069-86.527c2.598-5.217,7.973-8.451,13.805-8.312    c5.825,0.146,11.038,3.652,13.37,8.992l37.108,84.97c2.499,5.722,1.192,12.394-3.281,16.75l-41.108,40.029    C383.551,265.081,379.774,266.498,375.999,266.498z"/>
	</g>
	<g>
		<path style="fill:#00ECCF;" d="M256,171.998c-8.284,0-15-6.716-15-15v-57c0-24.813-20.187-45-45-45    c-24.814,0-45.001,20.187-45.001,45c0,8.284-6.716,15-15,15s-15-6.716-15-15c0-41.355,33.646-75,75.001-75    c41.355,0,75,33.645,75,75v57C271,165.282,264.285,171.998,256,171.998z"/>
	</g>
	<g>
		<path style="fill:#FFE470;" d="M365.585,511.998H146.413c-22.089,0-40.756-15.814-44.388-37.603L76.203,319.464    c-0.725-4.349,0.5-8.797,3.351-12.161s7.036-5.305,11.445-5.305h330c4.409,0,8.596,1.94,11.445,5.305s4.075,7.813,3.351,12.161    l-25.822,154.932C406.342,496.184,387.674,511.998,365.585,511.998z"/>
	</g>
	<path style="fill:#FDBF00;" d="M432.444,307.303c-2.85-3.364-7.036-5.305-11.445-5.305H256.332v210h109.253   c22.089,0,40.757-15.814,44.388-37.603l25.822-154.932C436.519,315.115,435.294,310.667,432.444,307.303z"/>
	<g>
		<path style="fill:#00ECCF;" d="M255.999,323.998c-8.284,0-15-6.716-15-15V75c0-20.143,7.861-39.021,22.136-53.158    C277.357,7.757,296.309,0,316.5,0c20.141,0,39.065,7.732,53.29,21.773C384.113,35.911,392.001,54.814,392.001,75    c0,8.284-6.716,15-15,15s-15-6.716-15-15c0-24.813-20.411-45-45.501-45s-45.501,20.187-45.501,45v233.998    C270.999,317.282,264.283,323.998,255.999,323.998z"/>
	</g>
	<path style="fill:#00CAB1;" d="M369.79,21.773C355.565,7.732,336.64,0,316.5,0c-20.19,0-39.143,7.757-53.365,21.842   c-2.466,2.442-4.727,5.035-6.802,7.742v294.397c8.129-0.179,14.667-6.812,14.667-14.983V75c0-24.813,20.411-45,45.501-45   s45.501,20.187,45.501,45c0,8.284,6.716,15,15,15s15-6.716,15-15C392.001,54.814,384.113,35.911,369.79,21.773z"/>
	<g>
		<path style="fill:#C30048;" d="M436.002,233.203c-3.445,0-6.856-1.186-9.605-3.477l-50.397-41.998l-50.397,41.998    c-4.471,3.727-10.693,4.529-15.965,2.061c-5.271-2.469-8.638-7.764-8.638-13.584v-70c0-41.355,33.645-75,75-75s75,33.645,75,75v70    c0,5.82-3.367,11.115-8.638,13.584C440.331,232.737,438.159,233.203,436.002,233.203z"/>
	</g>
	<polygon style="fill:#FF3C7D;" points="88.292,391.999 423.705,391.999 428.705,361.999 83.292,361.999  "/>
	<g>
		<path style="fill:#FF3C7D;" d="M196.001,238.703c-3.445,0-6.856-1.186-9.605-3.477l-50.397-41.998l-50.397,41.998    c-4.471,3.726-10.693,4.53-15.965,2.061c-5.271-2.469-8.638-7.764-8.638-13.584v-60.005c0-41.355,33.645-75,75-75s75,33.645,75,75    v60.005c0,5.82-3.367,11.115-8.638,13.584C200.331,238.237,198.159,238.703,196.001,238.703z"/>
	</g>
	<g>
		<path style="fill:#B34F03;" d="M442.135,331.998H69.864c-8.284,0-15-6.716-15-15s6.716-15,15-15h372.271c8.284,0,15,6.716,15,15    S450.419,331.998,442.135,331.998z"/>
	</g>
	<polygon style="fill:#C30048;" points="256.332,361.999 256.332,391.999 423.705,391.999 428.705,361.999  "/>
	<path style="fill:#803602;" d="M442.135,301.998H256.332v30h185.802c8.284,0,15-6.716,15-15S450.419,301.998,442.135,301.998z"/>
</g>















</svg>
